<svg data-name="Layer 1" xmlns="http://www.w3.org/2000/svg" width="16" height="16" viewBox="0 0 16 16"><title>chinpin_logo</title><path d="M5.09,10a2.84,2.84,0,0,0,.47,0A2,2,0,0,0,7.63,8,1.44,1.44,0,0,0,6.22,6.4,2.68,2.68,0,0,0,5,6.8a.06.06,0,0,1-.06,0V6.45H5V6.27H5V6.2H5V5.79C5,4.73,4.5,4.13,3.49,4.13a1.66,1.66,0,0,0-1.33.66,1.64,1.64,0,0,0-.31,1A1.33,1.33,0,0,0,2,6.44a2,2,0,0,0-1,.53A1.87,1.87,0,0,0,.54,8.31,1.56,1.56,0,0,0,2.15,10,1.74,1.74,0,0,0,3.81,8.58c0-.09-.1-.1-.19-.06a1.36,1.36,0,0,1-1.26,1A1.31,1.31,0,0,1,1.12,8.05c0-.75.43-1.37,1.06-1.37a.84.84,0,0,1,.61.3c.07.08.12.1.14.1s.22-.14.22-.3A.31.31,0,0,0,3,6.5a1.82,1.82,0,0,0-.73-.1,1.31,1.31,0,0,1-.17-.67A1.2,1.2,0,0,1,3.26,4.48c1.08,0,1.08,1,1.08,1.47v.61h0v4.52c0,.62,0,.7-.33.74l-.17,0c-.06,0-.05.19,0,.21.24,0,.5,0,.8,0s.54,0,1,0a.14.14,0,0,0,0-.21l-.33,0C5,11.76,5,11.69,5,11.08v-.89C5,10,5,10,5.09,10Zm0-2.9a1,1,0,0,1,.72-.24A1.24,1.24,0,0,1,7,8.18c0,.88-.41,1.53-1.11,1.53a1.09,1.09,0,0,1-.61-.19A.55.55,0,0,1,5,9V8.46H5V7.54C5,7.27,5,7.14,5.08,7.05Z" style="fill:#231f20"/><path d="M15.42,9.68l-.23,0c-.31,0-.32-.13-.32-.74V7.5a1,1,0,0,0-1.1-1.1,2,2,0,0,0-1.15.44s0-.08,0-.16V6.2h0V5.68h0s0-.09,0-.14v0a2.36,2.36,0,0,0-.1-.49V5a.36.36,0,0,0,0-.09v0a1.24,1.24,0,0,0-.17-.27h0l-.06-.07,0,0a.46.46,0,0,0-.07-.07h0a1.24,1.24,0,0,0-.27-.17h0l-.1,0h0a1.83,1.83,0,0,0-.59-.09,1.66,1.66,0,0,0-1.33.66,1.64,1.64,0,0,0-.31,1,1.33,1.33,0,0,0,.17.67,2.07,2.07,0,0,0-1,.53,1.87,1.87,0,0,0-.52,1.34A1.56,1.56,0,0,0,9.76,10a1.74,1.74,0,0,0,1.66-1.41c0-.09-.09-.1-.19-.06a1.36,1.36,0,0,1-1.26,1A1.31,1.31,0,0,1,8.73,8.05c0-.75.43-1.37,1.06-1.37a.82.82,0,0,1,.61.3c.07.08.12.1.14.1s.22-.14.22-.3a.33.33,0,0,0-.11-.28,1.9,1.9,0,0,0-.74-.1,1.31,1.31,0,0,1-.17-.67,1.2,1.2,0,0,1,1.14-1.25C12,4.48,12,5.48,12,6V8.46h0v.46c0,.61,0,.7-.32.74l-.22,0c-.05,0,0,.19,0,.21l.83,0,.8,0a.14.14,0,0,0,0-.21l-.18,0c-.3-.05-.32-.13-.32-.74V7.49c0-.3,0-.34.18-.47a1,1,0,0,1,.66-.23c.54,0,.81.37.81.91V8.92c0,.61,0,.69-.33.74l-.17,0a.14.14,0,0,0,0,.21l.79,0,.85,0A.14.14,0,0,0,15.42,9.68Z" style="fill:#231f20"/></svg>
